<?xml version="1.0" standalone="no"?>
<!DOCTYPE svg PUBLIC "-//W3C//DTD SVG 20010904//EN"
 "http://www.w3.org/TR/2001/REC-SVG-20010904/DTD/svg10.dtd">
<svg version="1.0" xmlns="http://www.w3.org/2000/svg"
 width="288.000000pt" height="288.000000pt" viewBox="0 0 288.000000 288.000000"
 preserveAspectRatio="xMidYMid meet">
<metadata>
Created by potrace 1.14, written by Peter Selinger 2001-2017
</metadata>
<g transform="translate(0.000000,288.000000) scale(0.100000,-0.100000)"
fill="#000000" stroke="none">
<path d="M1690 2850 c-14 -11 -28 -20 -31 -20 -4 0 -58 -30 -120 -66 -129 -75
-180 -105 -401 -233 -86 -50 -172 -99 -190 -109 -18 -11 -72 -42 -119 -69 -48
-27 -93 -53 -100 -57 -8 -3 -34 -19 -59 -34 l-45 -28 0 -312 c-1 -172 2 -316
5 -320 5 -9 158 -102 166 -102 2 0 21 -11 42 -24 30 -19 226 -133 407 -236 63
-36 232 -133 276 -159 25 -14 80 -46 122 -70 82 -48 85 -57 24 -82 -18 -7 -34
-16 -37 -19 -3 -3 -27 -19 -55 -34 -81 -45 -124 -70 -230 -133 -55 -32 -116
-67 -136 -77 l-36 -19 -54 30 c-30 17 -110 63 -179 103 -69 41 -162 94 -207
120 -45 25 -87 51 -95 57 -11 9 -13 72 -13 322 0 175 -3 311 -8 311 -5 0 -57
-28 -116 -61 -58 -34 -178 -103 -266 -154 l-160 -91 0 -319 0 -320 165 -96
c91 -52 273 -158 405 -234 132 -76 305 -176 385 -223 121 -70 148 -82 163 -72
10 6 125 72 255 147 130 75 251 144 267 154 17 10 44 26 60 35 49 27 355 204
430 249 l70 42 1 320 0 321 -30 14 c-17 8 -92 49 -166 93 -189 110 -252 146
-275 159 -11 6 -157 90 -323 186 -302 174 -303 174 -280 192 13 10 26 18 30
18 4 0 31 15 60 34 29 18 85 50 123 71 39 21 77 44 86 51 8 8 18 14 21 14 3 0
49 25 102 56 57 33 104 53 113 50 9 -4 58 -31 109 -61 51 -30 97 -55 102 -55
5 0 15 -6 21 -14 7 -8 28 -22 48 -31 20 -10 77 -42 126 -71 49 -30 93 -54 97
-54 4 0 14 -7 21 -16 10 -13 13 -81 14 -319 0 -167 3 -306 7 -310 4 -4 53 20
110 53 57 33 130 75 163 92 33 18 67 38 75 45 8 7 20 14 25 16 6 2 45 24 88
47 l77 44 -2 325 -3 325 -260 150 c-143 83 -361 209 -485 281 -124 71 -238
137 -255 145 -16 8 -42 23 -57 34 -32 22 -37 22 -68 -2z"/>
</g>
</svg>
